<svg width="1266" height="490" viewBox="0 0 1266 490" fill="none" xmlns="http://www.w3.org/2000/svg">
<path d="M2.47998 10C2.47998 4.47715 6.95713 0 12.48 0H1256C1261.52 0 1266 4.47715 1266 10V326.352C1266 331.405 1262.23 335.664 1257.22 336.278L13.696 488.626C7.73541 489.356 2.47998 484.705 2.47998 478.7V10Z" fill="#93C8ED"/>
<path d="M0 9.99998C0 4.47713 4.47715 0 10 0H1249.8C1255.32 0 1259.8 4.47715 1259.8 10V321.938C1259.8 326.999 1256.02 331.262 1250.99 331.866L11.1932 480.877C5.24007 481.592 0 476.944 0 470.948V9.99998Z" fill="#2E3C63"/>
</svg>

