<svg width="232" height="35" viewBox="0 0 232 35" fill="none" xmlns="http://www.w3.org/2000/svg">
<path d="M25.35 0.7C30.35 0.7 34.1167 1.66667 36.65 3.6C39.1833 5.5 40.45 8.3 40.45 12C40.45 13.8333 40.1167 15.95 39.45 18.35C38.35 22.2167 36.8667 25.2833 35 27.55C33.1333 29.8167 30.6667 31.4667 27.6 32.5C24.5667 33.5333 20.6667 34.0333 15.9 34L2.3 33.95C1.6 33.95 1.06667 33.8333 0.7 33.6C0.3 33.3667 0.0999999 33.05 0.0999999 32.65C0.0999999 32.45 0.15 32.2333 0.25 32C0.35 31.7 0.5 31.4833 0.7 31.35C0.866667 31.2167 1.13333 31.0333 1.5 30.8C2.03333 30.5 2.45 30.1667 2.75 29.8C3.08333 29.4333 3.36667 28.85 3.6 28.05L5.85 20.1L3.9 20.25C3.23333 20.2833 2.71667 20.1667 2.35 19.9C2.01667 19.6333 1.85 19.2333 1.85 18.7C1.85 18.5333 1.88333 18.2833 1.95 17.95C2.31667 16.5833 3.36667 15.8167 5.1 15.65L7.15 15.45L9.7 6.55C9.83333 6.11667 9.9 5.7 9.9 5.3C9.9 4.93333 9.83333 4.63333 9.7 4.4C9.6 4.13333 9.45 3.83333 9.25 3.5C8.95 3.06667 8.8 2.71667 8.8 2.45C8.8 2.35 8.83333 2.16667 8.9 1.9C9.03333 1.46667 9.31667 1.16667 9.75 0.999999C10.2167 0.799999 10.9167 0.7 11.85 0.7H25.35ZM26.65 17.25C27.5167 14.1167 27.95 11.65 27.95 9.85C27.95 8.08333 27.5833 6.86667 26.85 6.2C26.1167 5.53333 25.0667 5.2 23.7 5.2H22.6L20.05 14.35L22.75 14.1C23.45 14.0667 23.9667 14.2 24.3 14.5C24.6667 14.7667 24.85 15.1667 24.85 15.7C24.85 15.8333 24.8167 16.0667 24.75 16.4C24.5167 17.1333 24.15 17.6833 23.65 18.05C23.15 18.4167 22.4667 18.6333 21.6 18.7L18.8 18.95L15.85 29.5H17.05C18.5833 29.5 19.8667 29.1833 20.9 28.55C21.9667 27.8833 22.95 26.6833 23.85 24.95C24.75 23.1833 25.6833 20.6167 26.65 17.25ZM82.8094 0.7C83.5094 0.7 84.0427 0.816666 84.4094 1.05C84.8094 1.28333 85.0094 1.58333 85.0094 1.95C85.0094 2.11666 84.9594 2.33333 84.8594 2.6C84.7594 2.83333 84.6094 3.05 84.4094 3.25C84.2427 3.41667 84.076 3.55 83.9094 3.65C83.776 3.71667 83.676 3.78333 83.6094 3.85C83.076 4.15 82.6427 4.48333 82.3094 4.85C81.976 5.21667 81.6927 5.78333 81.4594 6.55L75.3094 28.1C75.176 28.5333 75.1094 28.95 75.1094 29.35C75.1094 29.75 75.1594 30.0667 75.2594 30.3C75.3927 30.5333 75.576 30.8333 75.8094 31.2C75.8427 31.2333 75.926 31.3667 76.0594 31.6C76.226 31.8 76.3094 32.0167 76.3094 32.25C76.3094 32.3167 76.276 32.4833 76.2094 32.75C76.0427 33.2167 75.726 33.55 75.2594 33.75C74.7927 33.9167 74.0927 34 73.1594 34H61.4094C60.7094 34 60.1594 33.8833 59.7594 33.65C59.3927 33.4167 59.2094 33.1 59.2094 32.7C59.2094 32.5 59.2594 32.2833 59.3594 32.05C59.4927 31.7833 59.676 31.5667 59.9094 31.4C60.1427 31.2 60.376 31.0333 60.6094 30.9C61.1427 30.6 61.576 30.2667 61.9094 29.9C62.2427 29.5 62.526 28.9 62.7594 28.1L65.1594 19.75H56.3094L53.9094 28.1C53.776 28.5333 53.7094 28.95 53.7094 29.35C53.7094 29.75 53.7594 30.0667 53.8594 30.3C53.9927 30.5333 54.176 30.8333 54.4094 31.2C54.4427 31.2333 54.526 31.3667 54.6594 31.6C54.826 31.8 54.9094 32.0167 54.9094 32.25C54.9094 32.3167 54.876 32.4833 54.8094 32.75C54.6427 33.2167 54.326 33.55 53.8594 33.75C53.3927 33.9167 52.6927 34 51.7594 34H40.0094C39.3094 34 38.776 33.8833 38.4094 33.65C38.0094 33.4167 37.8094 33.1 37.8094 32.7C37.8094 32.5 37.8594 32.2833 37.9594 32.05C38.0927 31.7833 38.276 31.5667 38.5094 31.4C38.7427 31.2 38.976 31.0333 39.2094 30.9C39.7427 30.6 40.176 30.2667 40.5094 29.9C40.8427 29.5 41.126 28.9 41.3594 28.1L47.5094 6.55C47.6427 6.11667 47.7094 5.7 47.7094 5.3C47.7094 4.93333 47.6427 4.63333 47.5094 4.4C47.4094 4.13333 47.2594 3.83333 47.0594 3.5C46.926 3.33333 46.8094 3.16667 46.7094 3C46.6094 2.8 46.5594 2.6 46.5594 2.4C46.5594 2.33333 46.5927 2.16667 46.6594 1.9C46.7927 1.46667 47.0927 1.16667 47.5594 0.999999C48.026 0.799999 48.726 0.7 49.6594 0.7H61.4094C62.1094 0.7 62.6427 0.816666 63.0094 1.05C63.4094 1.28333 63.6094 1.58333 63.6094 1.95C63.6094 2.11666 63.5594 2.33333 63.4594 2.6C63.3594 2.83333 63.2094 3.05 63.0094 3.25C62.8427 3.41667 62.676 3.55 62.5094 3.65C62.376 3.71667 62.276 3.78333 62.2094 3.85C61.676 4.15 61.2427 4.48333 60.9094 4.85C60.576 5.21667 60.2927 5.78333 60.0594 6.55L57.7094 14.75H66.5594L68.9094 6.55C69.0427 6.11667 69.1094 5.7 69.1094 5.3C69.1094 4.93333 69.0427 4.63333 68.9094 4.4C68.8094 4.13333 68.6594 3.83333 68.4594 3.5C68.326 3.33333 68.2094 3.16667 68.1094 3C68.0094 2.8 67.9594 2.6 67.9594 2.4C67.9594 2.33333 67.9927 2.16667 68.0594 1.9C68.1927 1.46667 68.4927 1.16667 68.9594 0.999999C69.426 0.799999 70.126 0.7 71.0594 0.7H82.8094ZM99.5086 0.399997C101.375 0.399997 103.092 0.633331 104.659 1.1C106.259 1.53333 107.875 2.23333 109.509 3.2L110.659 2.25C111.459 1.61666 112.109 1.18333 112.609 0.949999C113.142 0.716665 113.742 0.599998 114.409 0.599998C115.209 0.599998 115.842 0.783332 116.309 1.15C116.775 1.48333 117.009 1.98333 117.009 2.65C117.009 2.91667 116.959 3.2 116.859 3.5L114.759 10.4C114.525 11.2 114.225 11.7667 113.859 12.1C113.525 12.4333 113.009 12.6 112.309 12.6C111.575 12.6 110.925 12.3833 110.359 11.95C109.825 11.4833 108.975 10.55 107.809 9.15C106.642 7.81667 105.575 6.88333 104.609 6.35C103.675 5.78333 102.709 5.5 101.709 5.5C100.975 5.5 100.359 5.75 99.8586 6.25C99.3586 6.71667 99.1086 7.3 99.1086 8C99.1086 8.8 99.5086 9.55 100.309 10.25C101.109 10.9167 102.359 11.7667 104.059 12.8C105.792 13.8333 107.225 14.7667 108.359 15.6C109.492 16.4333 110.459 17.4667 111.259 18.7C112.059 19.9333 112.459 21.35 112.459 22.95C112.459 23.9833 112.292 25.0167 111.959 26.05C111.159 28.7167 109.609 30.75 107.309 32.15C105.009 33.5167 102.325 34.2 99.2586 34.2C96.9586 34.2 95.0253 33.9333 93.4586 33.4C91.8919 32.8667 90.2919 31.9667 88.6586 30.7L86.8586 32.2C86.0253 32.9 85.3419 33.3833 84.8086 33.65C84.2753 33.8833 83.6753 34 83.0086 34C82.2419 34 81.6253 33.8167 81.1586 33.45C80.7253 33.0833 80.5086 32.5833 80.5086 31.95C80.5086 31.6167 80.5753 31.2667 80.7086 30.9L83.1586 23.45C83.4253 22.5833 83.7919 21.9667 84.2586 21.6C84.7253 21.2333 85.3253 21.05 86.0586 21.05C86.8253 21.05 87.5086 21.3167 88.1086 21.85C88.7419 22.3833 89.5586 23.35 90.5586 24.75C91.6253 26.2833 92.6086 27.35 93.5086 27.95C94.4419 28.55 95.5419 28.85 96.8086 28.85C97.7086 28.85 98.3919 28.7167 98.8586 28.45C99.3586 28.15 99.7086 27.6833 99.9086 27.05C99.9753 26.8833 100.009 26.6333 100.009 26.3C100.009 25.5 99.6253 24.7667 98.8586 24.1C98.0919 23.4333 96.9086 22.6333 95.3086 21.7C93.6086 20.6667 92.2253 19.75 91.1586 18.95C90.0919 18.1167 89.1586 17.0833 88.3586 15.85C87.5919 14.6167 87.2086 13.1667 87.2086 11.5C87.2086 10.3333 87.3919 9.18333 87.7586 8.05C88.4586 5.75 89.8919 3.9 92.0586 2.5C94.2253 1.1 96.7086 0.399997 99.5086 0.399997ZM141.743 0.7C145.276 0.7 147.993 1.46667 149.893 3C151.826 4.53333 152.793 6.56667 152.793 9.1C152.793 10.1 152.643 11.15 152.343 12.25C151.41 15.5833 149.56 18.05 146.793 19.65C144.06 21.25 140.593 22.05 136.393 22.05H131.243L129.543 28.1C129.476 28.3 129.443 28.5667 129.443 28.9C129.443 29.3667 129.543 29.75 129.743 30.05C129.976 30.35 130.31 30.7 130.743 31.1C131.11 31.4333 131.36 31.6833 131.493 31.85C131.626 32.0167 131.693 32.2167 131.693 32.45C131.693 33.0167 131.426 33.4167 130.893 33.65C130.36 33.8833 129.576 34 128.543 34H115.993C115.126 34 114.476 33.85 114.043 33.55C113.61 33.2167 113.46 32.7667 113.593 32.2C113.66 31.9 113.793 31.6667 113.993 31.5C114.16 31.3 114.426 31.0833 114.793 30.85C115.36 30.5167 115.81 30.1667 116.143 29.8C116.476 29.4333 116.743 28.8667 116.943 28.1L123.043 6.55C123.176 6.11667 123.243 5.7 123.243 5.3C123.243 4.93333 123.176 4.63333 123.043 4.4C122.943 4.13333 122.793 3.83333 122.593 3.5C122.293 3.06667 122.143 2.71667 122.143 2.45C122.143 2.35 122.176 2.16667 122.243 1.9C122.376 1.46667 122.66 1.16667 123.093 0.999999C123.56 0.799999 124.26 0.7 125.193 0.7H141.743ZM140.443 11.35C140.81 10.1167 140.993 9.03333 140.993 8.1C140.993 6.16667 140.093 5.2 138.293 5.2H136.043L132.493 17.55H134.693C136.093 17.55 137.226 17.1167 138.093 16.25C138.993 15.35 139.776 13.7167 140.443 11.35ZM185.524 0.499999C186.924 0.499999 188.09 0.949999 189.024 1.85C189.957 2.75 190.424 3.96666 190.424 5.5C190.424 7.23333 189.907 8.63333 188.874 9.7C187.84 10.7667 186.607 11.3 185.174 11.3C184.24 11.3 183.44 11.1333 182.774 10.8C182.107 10.4667 181.474 9.93333 180.874 9.2L176.574 12.8L181.424 27.15C181.724 27.9833 182.04 28.65 182.374 29.15C182.74 29.65 183.174 30.15 183.674 30.65C184.04 31.0167 184.29 31.3167 184.424 31.55C184.59 31.75 184.674 32 184.674 32.3C184.674 32.8333 184.424 33.25 183.924 33.55C183.457 33.85 182.624 34 181.424 34H174.874C173.24 34 172.024 33.65 171.224 32.95C170.457 32.2167 169.824 31.0167 169.324 29.35L166.824 20.95L165.374 22.15L163.724 28.1C163.59 28.5333 163.524 28.95 163.524 29.35C163.524 29.75 163.574 30.0833 163.674 30.35C163.807 30.6167 163.99 30.9 164.224 31.2C164.524 31.6333 164.674 31.9833 164.674 32.25C164.674 32.3167 164.64 32.4833 164.574 32.75C164.44 33.2167 164.14 33.55 163.674 33.75C163.207 33.9167 162.507 34 161.574 34H149.824C149.124 34 148.59 33.8833 148.224 33.65C147.824 33.4167 147.624 33.1 147.624 32.7C147.624 32.5 147.674 32.2833 147.774 32.05C147.907 31.6833 148.124 31.4 148.424 31.2C148.724 31 148.907 30.8833 148.974 30.85C149.507 30.5167 149.94 30.1833 150.274 29.85C150.607 29.4833 150.89 28.9 151.124 28.1L157.224 6.55C157.357 6.11667 157.424 5.7 157.424 5.3C157.424 4.93333 157.357 4.63333 157.224 4.4C157.124 4.13333 156.974 3.83333 156.774 3.5C156.474 3.06667 156.324 2.71667 156.324 2.45C156.324 2.35 156.357 2.16667 156.424 1.9C156.557 1.46667 156.84 1.16667 157.274 0.999999C157.74 0.799999 158.44 0.7 159.374 0.7H171.124C171.824 0.7 172.357 0.816666 172.724 1.05C173.124 1.25 173.324 1.55 173.324 1.95C173.324 2.11666 173.274 2.33333 173.174 2.6C173.074 2.83333 172.924 3.05 172.724 3.25C172.557 3.41667 172.39 3.55 172.224 3.65C172.09 3.71667 171.99 3.78333 171.924 3.85C171.39 4.15 170.957 4.48333 170.624 4.85C170.29 5.21667 170.007 5.78333 169.774 6.55L167.674 14L180.924 2.55C181.79 1.81667 182.574 1.3 183.274 0.999999C183.974 0.666666 184.724 0.499999 185.524 0.499999ZM228.329 0.7C230.163 0.7 231.079 1.45 231.079 2.95C231.079 3.41666 230.979 4 230.779 4.7L229.579 8.75C229.213 9.98333 228.763 10.85 228.229 11.35C227.696 11.85 226.929 12.1 225.929 12.1C225.096 12.1 224.446 11.8833 223.979 11.45C223.546 11.0167 223.129 10.3333 222.729 9.4L221.879 7.35C221.613 6.71666 221.329 6.28333 221.029 6.05C220.729 5.81666 220.263 5.7 219.629 5.7H218.479L212.129 28.05C212.029 28.4833 211.979 28.8667 211.979 29.2C211.979 29.6 212.029 29.9333 212.129 30.2C212.263 30.4667 212.446 30.75 212.679 31.05C212.979 31.5167 213.129 31.9 213.129 32.2C213.129 32.2667 213.096 32.4333 213.029 32.7C212.863 33.1333 212.529 33.45 212.029 33.65C211.563 33.85 210.879 33.95 209.979 33.95H198.229C197.529 33.95 196.979 33.8333 196.579 33.6C196.213 33.3667 196.029 33.0333 196.029 32.6C196.029 32.4 196.079 32.2 196.179 32C196.313 31.7 196.463 31.4833 196.629 31.35C196.829 31.1833 197.113 30.9833 197.479 30.75C197.979 30.45 198.396 30.1167 198.729 29.75C199.063 29.3833 199.346 28.8167 199.579 28.05L205.879 5.7H204.729C203.996 5.7 203.396 5.81666 202.929 6.05C202.463 6.28333 201.963 6.71666 201.429 7.35L199.779 9.4C199.013 10.3 198.263 10.9833 197.529 11.45C196.829 11.8833 196.063 12.1 195.229 12.1C194.463 12.1 193.863 11.9 193.429 11.5C192.996 11.1 192.779 10.55 192.779 9.85C192.779 9.51667 192.829 9.15 192.929 8.75L194.229 4.2C194.496 3.26667 194.796 2.56667 195.129 2.1C195.463 1.6 195.929 1.25 196.529 1.05C197.163 0.816666 198.046 0.7 199.179 0.7H228.329Z" fill="white"/>
</svg>
